<?xml version="1.0" encoding="UTF-8"?>
<svg xmlns="http://www.w3.org/2000/svg" width="32" height="29" viewBox="0 0 32 29" fill="none">
  <path d="M31.361 9.82363C31.1887 10.0501 31.0337 10.294 30.8443 10.4943C30.2415 11.1215 29.6215 11.74 29.0101 12.3584C28.4934 12.8811 28.347 13.5169 28.4504 14.2312C28.4934 14.5187 28.4848 14.8148 28.5107 15.1458C26.3751 12.9856 24.2912 10.8776 22.1986 8.76092C22.0436 8.9003 21.9661 8.97869 21.8886 9.05709C20.8295 10.0588 19.5981 10.2069 18.2806 9.7191C17.85 9.56231 17.4453 9.28356 17.0492 9.04838C16.0416 8.44734 14.8016 8.53445 13.9061 9.28356C13.4841 9.6407 13.0708 10.0065 12.5197 10.1546C11.4863 10.4334 10.5821 10.1895 9.80714 9.45778C9.41963 9.09193 9.41963 8.54316 9.81575 8.13376C10.298 7.62854 10.7888 7.14074 11.2883 6.64423C12.0891 5.84285 12.8727 5.03276 13.6822 4.2488C14.2075 3.74358 14.8705 3.55195 15.5939 3.55195C16.5841 3.55195 17.5744 3.54324 18.5647 3.55195C19.2278 3.56066 19.7703 3.34289 20.2353 2.85509C20.7778 2.28019 21.3461 1.73142 21.8973 1.16522C22.4225 0.633874 22.9134 0.625163 23.43 1.15651C25.9531 3.70003 28.4676 6.25225 30.9821 8.80448C31.1457 8.96998 31.249 9.18775 31.3782 9.37938C31.361 9.52746 31.361 9.67554 31.361 9.82363Z" fill="#9575CD"></path>
  <path d="M3.2798 14.7016C3.18507 14.4316 3.09896 14.1877 3.02146 13.9438C2.77174 13.1424 2.34118 12.4543 1.75561 11.8619C1.27339 11.3828 0.808383 10.8951 0.334768 10.4073C-0.113014 9.93688 -0.113014 9.42295 0.343379 8.96128C2.89229 6.37422 5.44982 3.79586 8.00734 1.20879C8.44651 0.764547 8.96319 0.747126 9.38513 1.17395C10.1171 1.90564 10.8404 2.65476 11.5638 3.39517C11.6068 3.43872 11.6499 3.48227 11.7102 3.55196C11.6327 3.63907 11.5638 3.71746 11.4863 3.79586C10.5132 4.78016 9.53152 5.76447 8.56707 6.75748C7.56817 7.77663 7.37011 9.12679 8.10207 10.2853C8.67041 11.1999 9.54875 11.7313 10.5735 11.9839C12.1838 12.3846 13.6218 12.0187 14.8619 10.8863C15.413 10.3898 15.8349 10.3811 16.3688 10.8602C17.9705 12.3236 20.0544 12.5414 21.9144 11.4612C21.9575 11.4351 22.0005 11.409 22.0522 11.3828C22.1039 11.4264 22.1555 11.4612 22.1986 11.5048C23.9897 13.3166 25.7808 15.1197 27.5634 16.9315C28.0973 17.4716 28.192 18.1249 27.8561 18.7085C27.3998 19.5012 26.3578 19.6318 25.6775 18.9611C24.9542 18.2469 24.2481 17.5152 23.5247 16.8009C23.3697 16.6528 23.1717 16.5134 22.965 16.4525C22.5689 16.3392 22.1814 16.5396 21.9747 16.8967C21.7766 17.2538 21.8197 17.6807 22.1297 18.003C22.7239 18.6214 23.3353 19.2312 23.9467 19.8496C24.1017 20.0064 24.2567 20.1545 24.3944 20.3113C24.9369 20.9123 24.9197 21.7572 24.3772 22.2886C23.8347 22.8112 23.008 22.8112 22.4483 22.2625C21.7164 21.5482 21.0102 20.7991 20.2783 20.0848C20.1233 19.9367 19.9252 19.7973 19.7186 19.7364C19.3311 19.6231 18.9522 19.8148 18.7455 20.1545C18.5388 20.4942 18.5733 20.9297 18.8488 21.2433C19.1502 21.5743 19.4775 21.8879 19.7961 22.2102C20.2525 22.6806 20.7261 23.1335 21.1739 23.6213C21.5614 24.0394 21.6561 24.5447 21.4494 25.0847C21.2427 25.6074 20.838 25.9035 20.2783 25.9471C19.8477 25.9906 19.4775 25.8251 19.1761 25.5203C18.7886 25.137 18.4097 24.7537 18.0308 24.3617C17.4194 23.7346 16.7047 23.3426 15.8177 23.3165C15.6541 23.3077 15.5852 23.2555 15.568 23.0813C15.4732 21.644 14.7327 20.6945 13.4066 20.1893C13.3807 20.1806 13.3549 20.1632 13.3291 20.1458C13.3204 20.1371 13.3204 20.1284 13.3032 20.1109C13.8716 18.7434 13.7596 17.4542 12.7091 16.3741C11.6413 15.2852 10.3582 15.172 8.98902 15.7556C8.23123 13.2644 5.00204 12.6285 3.2798 14.7016Z" fill="#9575CD"></path>
  <path d="M7.33551 23.3426C6.60355 23.3077 6.17299 23.0551 5.93188 22.5238C5.69938 22.0011 5.74243 21.4785 6.12994 21.0517C6.62939 20.4942 7.17189 19.9716 7.69717 19.4402C8.29135 18.8305 8.88552 18.2207 9.49691 17.6371C9.90164 17.2451 10.3925 17.158 10.9178 17.3671C11.4344 17.5674 11.7272 17.9768 11.7875 18.5343C11.8219 18.9089 11.7358 19.266 11.4775 19.536C10.3408 20.7032 9.20413 21.8705 8.03301 23.0029C7.82634 23.2119 7.49051 23.2729 7.33551 23.3426Z" fill="#9575CD"></path>
  <path d="M2.5651 18.665C2.55649 18.273 2.71149 17.942 2.97844 17.6632C3.61567 17.0099 4.25289 16.3566 4.89873 15.7207C5.48429 15.1546 6.3368 15.1633 6.8707 15.7207C7.39598 16.2695 7.38737 17.1145 6.82764 17.6981C6.19902 18.3514 5.55318 19.0047 4.90735 19.6405C4.46817 20.0674 3.94289 20.1719 3.38316 19.928C2.84927 19.6928 2.58232 19.2573 2.5651 18.665Z" fill="#9575CD"></path>
  <path d="M10.582 26.6265C9.85009 26.5917 9.41953 26.3391 9.17841 25.8077C8.94591 25.2938 8.98035 24.7711 9.36786 24.3617C10.0654 23.6126 10.7887 22.8722 11.5293 22.1754C12.0287 21.705 12.8554 21.7834 13.3376 22.2712C13.8198 22.759 13.906 23.5952 13.441 24.1004C12.7434 24.867 12.0029 25.5986 11.2537 26.3042C11.0557 26.5046 10.7284 26.5655 10.582 26.6265Z" fill="#9575CD"></path>
  <path d="M15.1287 28.6038C14.414 28.569 13.992 28.3164 13.7423 27.8111C13.4926 27.3059 13.5356 26.8007 13.8887 26.3652C14.1556 26.0342 14.4656 25.7206 14.7929 25.4505C15.3182 25.0063 16.119 25.0847 16.6012 25.5725C17.0834 26.069 17.1437 26.8704 16.6959 27.4017C16.429 27.724 16.1362 28.0289 15.809 28.2902C15.5765 28.4644 15.2751 28.5428 15.1287 28.6038Z" fill="#9575CD"></path>
</svg>
