<?xml version="1.0" encoding="UTF-8"?>
<svg xmlns="http://www.w3.org/2000/svg" width="99" height="58" viewBox="0 0 99 58" fill="none">
  <path d="M55.5086 41.0346H57.3658V34.356H55.5086V33.4977H60.2873V34.356H58.4301V41.0346H60.2873V41.914H55.5086V41.0346Z" fill="#003548"></path>
  <path d="M67.1947 34.7748L65.8174 39.4854H64.6905L63.3132 34.8166V41.9349H62.3116V33.4977H63.8558L65.2748 38.3339L66.6521 33.4977H68.1755V41.9349H67.1947V34.7748Z" fill="#003548"></path>
  <path d="M73.1209 33.4977C73.5383 33.4977 73.9348 33.5605 74.2895 33.6652C74.6234 33.7908 74.9364 33.9583 75.1868 34.1676C75.4372 34.377 75.6251 34.6491 75.7503 34.9423C75.8755 35.2563 75.9381 35.5913 75.9381 35.9891C75.9381 36.3868 75.8755 36.7428 75.7503 37.0568C75.6251 37.3708 75.4372 37.6221 75.1868 37.8314C74.9364 38.0408 74.6443 38.2083 74.2895 38.313C73.9348 38.4176 73.5591 38.4804 73.1209 38.4804H71.0967V41.914H70.0325V33.4977H73.1209ZM71.0967 37.5174H73.0374C73.6009 37.5174 74.0391 37.3918 74.373 37.1405C74.686 36.8893 74.853 36.5125 74.853 35.9891C74.853 35.4657 74.7069 35.0679 74.373 34.8166C74.06 34.5654 73.6217 34.4398 73.0374 34.4398H71.0967V37.5174Z" fill="#003548"></path>
  <path d="M81.5309 39.5482H78.3381L77.6078 41.9349H76.5226L79.2563 33.4977H80.6545L83.3882 41.9349H82.2822L81.5309 39.5482ZM78.6303 38.5433H81.197L79.9032 34.4189L78.6303 38.5433Z" fill="#003548"></path>
  <path d="M90.4624 39.2341C90.4415 39.6529 90.3581 40.0506 90.1911 40.3856C90.0242 40.7206 89.8155 41.0346 89.5442 41.2859C89.2729 41.5371 88.9599 41.7465 88.6052 41.8721C88.2295 42.0186 87.8539 42.0814 87.4366 42.0814C86.581 42.0814 85.8506 41.7883 85.2663 41.2231C85.0367 40.9928 84.8489 40.7415 84.7029 40.4694C84.5568 40.1972 84.4524 39.9041 84.3898 39.5901C84.3272 39.297 84.2646 38.9829 84.2646 38.6689C84.2438 38.3548 84.2229 38.0408 84.2229 37.7267C84.2229 37.4127 84.2438 37.0987 84.2646 36.7846C84.2855 36.4706 84.3272 36.1565 84.3898 35.8634C84.4524 35.5703 84.5568 35.2772 84.7029 35.0051C84.8281 34.7329 85.0159 34.4607 85.2663 34.2514C85.8715 33.6652 86.6018 33.372 87.4574 33.372C87.8539 33.372 88.2295 33.4349 88.6052 33.5814C88.9599 33.707 89.2729 33.8955 89.5442 34.1467C89.8155 34.3979 90.0242 34.691 90.1911 35.026C90.3372 35.361 90.4415 35.7588 90.4415 36.1775H89.3564C89.3355 35.9262 89.2938 35.6959 89.1895 35.4657C89.0851 35.2563 88.9599 35.0679 88.793 34.9004C88.626 34.7538 88.4173 34.6073 88.2087 34.5235C87.9791 34.4398 87.7287 34.3979 87.4366 34.3979C86.8731 34.3979 86.414 34.6073 86.0175 35.026C85.8297 35.2144 85.7045 35.4028 85.621 35.6331C85.5167 35.8634 85.4541 36.0937 85.4124 36.324C85.3706 36.5753 85.3498 36.8056 85.3289 37.0568C85.308 37.308 85.308 37.5593 85.308 37.7896C85.308 38.0199 85.308 38.2711 85.3289 38.5223C85.3498 38.7736 85.3706 39.0248 85.4124 39.2551C85.4541 39.5063 85.5167 39.7366 85.621 39.9669C85.7045 40.1972 85.8297 40.3856 86.0175 40.5741C86.414 40.9718 86.8731 41.1812 87.4366 41.1812C87.7078 41.1812 87.9791 41.1393 88.2087 41.0346C88.4382 40.93 88.626 40.8043 88.8138 40.6369C88.9808 40.4694 89.106 40.26 89.2103 40.0506C89.3147 39.8204 89.3564 39.5901 89.3773 39.3179H90.4624V39.2341Z" fill="#003548"></path>
  <path d="M95.1784 41.914H94.1142V34.4607H91.2761V33.4977H98.0165V34.4817H95.1784V41.914Z" fill="#003548"></path>
  <path d="M56.5729 52.2354H60.4334V53.2404H56.5729V56.946H55.5086V48.5088H61.1429V49.4928H56.5729V52.2354Z" fill="#003548"></path>
  <path d="M68.4257 52.7379C68.4257 53.0729 68.4049 53.4079 68.4049 53.7219C68.384 54.0359 68.3423 54.35 68.2588 54.6431C68.1962 54.9362 68.071 55.2293 67.9458 55.5015C67.8206 55.7736 67.6328 56.0039 67.4032 56.2342C67.1111 56.5273 66.7772 56.7576 66.4224 56.8832C66.0468 57.0298 65.6712 57.0926 65.2538 57.0926C64.8365 57.0926 64.44 57.0298 64.0852 56.8832C63.7096 56.7576 63.3757 56.5273 63.0836 56.2342C62.854 56.0039 62.6662 55.7736 62.541 55.5015C62.4158 55.2293 62.3115 54.9362 62.228 54.6431C62.1654 54.35 62.1028 54.0359 62.1028 53.7219C62.0819 53.4079 62.061 53.0729 62.061 52.7379C62.061 52.4029 62.0819 52.0679 62.1028 51.7539C62.1236 51.4399 62.1654 51.1049 62.228 50.8118C62.2906 50.5187 62.4158 50.2465 62.541 49.9743C62.6662 49.7022 62.854 49.4719 63.0836 49.2416C63.3757 48.9485 63.7096 48.7182 64.0852 48.5716C64.44 48.446 64.8365 48.3623 65.2538 48.3623C65.6712 48.3623 66.0677 48.4251 66.4224 48.5716C66.7772 48.7182 67.1111 48.9485 67.4032 49.2416C67.6328 49.4719 67.8206 49.7022 67.9458 49.9743C68.071 50.2465 68.1753 50.5187 68.2588 50.8118C68.3214 51.1049 68.384 51.4399 68.4049 51.7539C68.4049 52.0679 68.4257 52.4029 68.4257 52.7379ZM67.3197 52.6542C67.3197 52.4448 67.3197 52.2145 67.2989 51.9633C67.278 51.712 67.2571 51.4817 67.2363 51.2305C67.1945 51.0002 67.1319 50.7699 67.0485 50.5396C66.9441 50.3093 66.8189 50.1209 66.652 49.9534C66.4433 49.744 66.2346 49.5975 66.0051 49.4928C65.7755 49.4091 65.5042 49.3672 65.233 49.3672C64.9617 49.3672 64.6904 49.4091 64.4817 49.5137C64.2522 49.6184 64.0226 49.765 63.8139 49.9743C63.647 50.1628 63.5218 50.3512 63.4383 50.5606C63.334 50.7908 63.2714 51.0211 63.2296 51.2514C63.1879 51.4817 63.167 51.733 63.167 51.9842C63.1462 52.2354 63.1462 52.4657 63.1462 52.6751V52.8426C63.1462 53.0519 63.1462 53.2822 63.167 53.5335C63.1879 53.7847 63.2088 54.015 63.2296 54.2662C63.2714 54.4965 63.334 54.7268 63.4383 54.9571C63.5218 55.1874 63.647 55.3758 63.8139 55.5433C64.0226 55.7527 64.2313 55.8992 64.4817 55.983C64.7113 56.0877 64.9617 56.1295 65.233 56.1295C65.5042 56.1295 65.7755 56.0877 66.0051 55.983C66.2346 55.8992 66.4642 55.7527 66.652 55.5433C66.8189 55.3549 66.9441 55.1665 67.0485 54.9571C67.1319 54.7268 67.1945 54.4965 67.2363 54.2662C67.278 54.0359 67.2989 53.7847 67.2989 53.5335C67.3197 53.2822 67.3197 53.0519 67.3197 52.8426V52.6542Z" fill="#003548"></path>
  <path d="M72.8081 53.4288H71.076V56.946H70.0118V48.5088H72.8498C73.2672 48.5088 73.6637 48.5716 74.0184 48.6763C74.3523 48.781 74.6444 48.9485 74.8949 49.1578C75.1453 49.3672 75.3331 49.6394 75.4583 49.9325C75.5835 50.2465 75.6461 50.5815 75.6461 50.9583C75.6461 51.5027 75.5 51.9633 75.187 52.382C74.8949 52.8007 74.4358 53.0938 73.8515 53.2404L75.667 56.946H74.4775L72.8081 53.4288ZM74.5401 50.9793C74.5401 50.7071 74.4984 50.4768 74.4149 50.2884C74.3314 50.1 74.2062 49.9534 74.0393 49.8278C73.8932 49.7022 73.7054 49.6184 73.4758 49.5766C73.2672 49.5138 73.0376 49.4928 72.7872 49.4928H71.0552V52.4448H72.7872C73.0376 52.4448 73.2672 52.4239 73.4758 52.3611C73.6845 52.3192 73.8723 52.2354 74.0393 52.1098C74.1854 51.9842 74.3314 51.8377 74.4149 51.6492C74.4984 51.4608 74.5401 51.2514 74.5401 50.9793Z" fill="#003548"></path>
  <path d="M83.1168 54.2453C83.0959 54.664 83.0125 55.0618 82.8455 55.3968C82.6786 55.7318 82.4699 56.0458 82.1986 56.297C81.9273 56.5483 81.6143 56.7576 81.2596 56.8832C80.884 57.0298 80.5083 57.0926 80.091 57.0926C79.2354 57.0926 78.505 56.7995 77.9207 56.2342C77.6912 56.0039 77.5034 55.7527 77.3573 55.4805C77.2112 55.2084 77.1069 54.9152 77.0443 54.6012C76.9817 54.3081 76.9191 53.9941 76.9191 53.68C76.8982 53.366 76.8773 53.0519 76.8773 52.7379C76.8773 52.4239 76.8982 52.1098 76.9191 51.7958C76.9399 51.4817 76.9817 51.1677 77.0443 50.8746C77.1069 50.5815 77.2112 50.2884 77.3573 50.0162C77.4825 49.744 77.6703 49.4719 77.9207 49.2625C78.5259 48.6763 79.2563 48.3832 80.1118 48.3832C80.5083 48.3832 80.884 48.446 81.2596 48.5926C81.6143 48.7182 81.9273 48.9066 82.1986 49.1578C82.4699 49.4091 82.6786 49.7022 82.8455 50.0371C82.9916 50.3721 83.096 50.7699 83.096 51.1886H82.0108C81.99 50.9374 81.9482 50.7071 81.8439 50.4768C81.7395 50.2674 81.6143 50.079 81.4474 49.9115C81.2804 49.765 81.0718 49.6184 80.8631 49.5347C80.6335 49.4509 80.3831 49.4091 80.091 49.4091C79.5275 49.4091 79.0684 49.6184 78.672 50.0371C78.4841 50.2256 78.3589 50.414 78.2755 50.6443C78.1711 50.8746 78.1085 51.1049 78.0668 51.3352C78.0251 51.5864 78.0042 51.8167 77.9833 52.0679C77.9625 52.3192 77.9625 52.5704 77.9625 52.8007C77.9625 53.031 77.9625 53.2822 77.9833 53.5335C78.0042 53.7847 78.0251 54.0359 78.0668 54.2662C78.1085 54.5175 78.1711 54.7478 78.2755 54.9781C78.3589 55.2084 78.4841 55.3968 78.672 55.5852C79.0684 55.983 79.5275 56.1923 80.091 56.1923C80.3623 56.1923 80.6335 56.1505 80.8631 56.0458C81.0926 55.9411 81.2804 55.8155 81.4683 55.648C81.6352 55.4805 81.7604 55.2712 81.8647 55.0618C81.9691 54.8315 82.0108 54.6012 82.0317 54.329H83.1168V54.2453Z" fill="#003548"></path>
  <path d="M84.8699 48.5088H90.2747V49.4928H85.9341V52.1308H89.3565V53.1357H85.9341V55.983H90.2747V56.967H84.8699V48.5088Z" fill="#003548"></path>
  <path d="M6.17689 12.4779C9.59922 12.4779 12.4164 9.71433 12.4164 6.28081C12.4164 2.8473 9.59922 0 6.17689 0C2.75456 0 0 2.8473 0 6.28081C0 9.71433 2.75456 12.4779 6.17689 12.4779ZM1.41902 57.4904H10.9348V15.074H1.41902V57.4904ZM19.4071 57.4904H28.9229V42.4792H39.3986V32.9324H28.9229V24.5789H49.0812V15.074H19.4071V57.4904Z" fill="#00B0EB"></path>
</svg>
