<svg width="40" height="41" viewBox="0 0 40 41" fill="none" xmlns="http://www.w3.org/2000/svg">
<path d="M19.6688 40.4893C8.88001 40.4893 0.0932617 31.517 0.0932617 20.4436C0.0932617 9.42701 8.88001 0.454712 19.7244 0.511499C30.5132 0.511499 39.2999 9.4838 39.2999 20.5004C39.2443 31.5738 30.5132 40.4893 19.6688 40.4893ZM7.65654 20.5004C7.60092 20.5004 7.60092 20.5004 7.65654 20.5004C7.60092 22.0337 7.60092 23.5101 7.60092 25.0434C7.60092 25.6112 7.65654 26.1791 7.71215 26.747C8.10143 29.1888 9.26929 31.0627 11.5494 32.0849C12.606 32.5392 13.7739 32.7663 14.8861 32.7663C17.9448 32.7663 21.0035 32.7663 24.0622 32.7663C24.7295 32.7663 25.3969 32.7096 26.0642 32.596C28.5112 32.1985 30.3464 30.8924 31.2362 28.4506C31.6254 27.4284 31.7923 26.3495 31.7923 25.2705C31.7923 22.204 31.7923 19.1375 31.7923 16.0143C31.7923 15.4464 31.7367 14.8217 31.6811 14.2539C31.2918 11.6985 30.0683 9.76773 27.6214 8.80236C26.6203 8.40485 25.6193 8.23449 24.5627 8.23449C21.3372 8.23449 18.1117 8.23449 14.8305 8.23449C13.6071 8.23449 12.4392 8.46164 11.3269 8.97272C8.88001 10.1652 7.76776 12.2663 7.65654 14.8785C7.54531 16.8093 7.65654 18.6265 7.65654 20.5004Z" fill="#00AEE9"/>
<path d="M19.6689 10.5623C21.2817 10.5623 22.8388 10.5623 24.4516 10.5623C25.0077 10.5623 25.5082 10.6191 26.0644 10.7327C28.0108 11.187 29.2343 12.6066 29.4567 14.6509C29.5123 15.1052 29.5123 15.5595 29.5123 16.0138C29.5123 19.0803 29.5123 22.09 29.5123 25.1565C29.5123 25.8947 29.4011 26.6897 29.1786 27.3712C28.5669 29.1883 27.2322 30.1537 25.397 30.2673C23.1169 30.3809 20.8368 30.3809 18.5567 30.3809C17.0552 30.3809 15.5536 30.3809 13.9965 30.2673C11.7164 30.0969 10.1592 28.5069 9.88117 26.1219C9.82556 25.7244 9.82556 25.3268 9.82556 24.8726C9.82556 21.8061 9.82556 18.7396 9.82556 15.6163C9.82556 14.8781 9.93679 14.1399 10.1592 13.4584C10.771 11.6413 12.1057 10.6759 13.9409 10.5623C15.498 10.4487 17.1108 10.4487 18.7235 10.4487C19.0572 10.5623 19.3909 10.5623 19.6689 10.5623ZM26.0644 20.5C26.0644 16.8656 23.2281 13.9695 19.7246 13.9695C16.1654 13.9695 13.3291 16.8656 13.3291 20.5C13.3291 24.0775 16.1654 26.9737 19.7246 26.9737C23.2281 27.0305 26.0644 24.0775 26.0644 20.5ZM26.0644 12.7202C25.3414 12.7202 24.7853 13.2881 24.7853 14.0263C24.7853 14.7645 25.3414 15.3324 26.0644 15.3324C26.7873 15.3324 27.3434 14.7077 27.2878 14.0263C27.3434 13.2881 26.7873 12.7202 26.0644 12.7202Z" fill="#00AEE9"/>
<path d="M23.784 20.5006C23.784 22.8288 21.9488 24.7028 19.6687 24.7028C17.3885 24.7028 15.5533 22.8288 15.5533 20.5006C15.5533 18.1723 17.3885 16.2983 19.6687 16.2983C21.9488 16.2983 23.784 18.1723 23.784 20.5006Z" fill="#00AEE9"/>
</svg>
