<svg width="31" height="32" viewBox="0 0 31 32" fill="none" xmlns="http://www.w3.org/2000/svg">
<path d="M14.5395 0.171875C15.1753 0.171875 15.8112 0.171875 16.4894 0.171875C16.5742 0.171875 16.659 0.214132 16.7437 0.214132C17.3372 0.298647 17.9306 0.340904 18.5241 0.467676C26.79 2.07345 32.2158 10.0178 30.7746 18.258C29.5453 25.3995 23.4836 30.7662 16.1927 31.062C12.3353 31.231 8.85934 30.1323 5.84971 27.7236C2.79769 25.315 0.932563 22.1457 0.211946 18.258C0.127168 17.7087 0.0423892 17.1593 0 16.61C0 15.9761 0 15.3423 0 14.6661C0.0423892 14.4548 0.0423892 14.2858 0.0847784 14.0745C0.423892 10.7362 1.69557 7.82045 3.98459 5.32727C6.35838 2.66506 9.32563 1.01702 12.8863 0.425419C13.4374 0.298647 13.9884 0.25639 14.5395 0.171875ZM17.2948 12.5955C17.2948 11.5391 17.2524 10.5249 17.2948 9.46848C17.3372 8.58108 17.8459 8.11625 18.736 8.07399C19.499 8.03174 20.262 8.03174 21.025 8.03174C21.1522 8.03174 21.2794 8.03174 21.4065 8.03174C21.4065 6.76402 21.4065 5.53855 21.4065 4.27083C20.1773 4.27083 18.9904 4.22858 17.8035 4.27083C15.1329 4.39761 13.3526 6.13016 13.1407 8.79237C13.0559 9.93332 13.0983 11.0743 13.0983 12.2152C13.0983 12.342 13.0983 12.4688 13.0983 12.5955C11.9114 12.5955 10.7669 12.5955 9.62235 12.5955C9.62235 12.68 9.57996 12.7223 9.57996 12.7646C9.57996 13.99 9.57996 15.2155 9.57996 16.3987C9.57996 16.6522 9.70713 16.61 9.87669 16.61C10.8516 16.61 11.7842 16.61 12.7592 16.61C12.8863 16.61 12.9711 16.61 13.0983 16.61C13.0983 20.0751 13.0983 23.4979 13.0983 26.963C14.4971 26.963 15.8536 26.963 17.2524 26.963C17.2524 23.4979 17.2524 20.0751 17.2524 16.61C18.6089 16.61 19.9229 16.61 21.237 16.61C21.237 15.2577 21.237 13.9478 21.237 12.5533C19.9229 12.5955 18.6089 12.5955 17.2948 12.5955Z" fill="#00AEE9"/>
</svg>
