<svg width="24" height="29" viewBox="0 0 24 29" fill="none" xmlns="http://www.w3.org/2000/svg">
<path d="M22.0188 10.8274C21.5108 10.6531 21.0458 10.4267 20.5635 10.3308C18.7724 9.97371 17.0932 10.7664 16.1632 12.3866C14.7596 14.8256 13.3732 17.2732 11.9782 19.7209C11.7543 20.1129 11.5476 20.5223 11.2979 20.9056C10.6176 21.9335 10.2559 23.0571 10.2473 24.3028C10.2473 25.0867 10.1526 25.862 10.1182 26.6459C10.1009 27.0205 10.1526 27.4038 10.1698 27.8219C10.0665 27.8219 9.95454 27.8219 9.8426 27.8219C7.98258 27.8219 6.12256 27.8219 4.27115 27.8219C1.79113 27.8132 0 26.01 0 23.5014C0 17.099 0 10.7054 0 4.30307C0 1.81182 1.79113 0.00871067 4.24532 0C8.75759 0 13.2699 0 17.7821 0C20.2277 0 22.0102 1.81182 22.0188 4.27694C22.0274 6.37621 22.0188 8.46677 22.0188 10.566C22.0188 10.6619 22.0188 10.749 22.0188 10.8274ZM9.66176 5.5574C8.3098 5.5574 6.95785 5.53998 5.60589 5.56612C5.32172 5.57483 5.0031 5.65322 4.75338 5.8013C4.23671 6.09747 4.02143 6.74205 4.18504 7.33438C4.34865 7.93542 4.89116 8.34482 5.57144 8.34482C8.27536 8.35353 10.9793 8.35353 13.6832 8.34482C14.5357 8.34482 15.1471 7.73507 15.1385 6.93369C15.1299 6.13231 14.5185 5.5574 13.6574 5.5574C12.3226 5.5574 10.9879 5.5574 9.66176 5.5574ZM8.50786 13.9109C9.4637 13.9109 10.4195 13.9109 11.3754 13.9109C12.2537 13.9109 12.8823 13.3186 12.8737 12.5172C12.8737 11.7246 12.2451 11.1322 11.3926 11.1322C9.4637 11.1235 7.52618 11.1235 5.59728 11.1322C4.75338 11.1322 4.12476 11.742 4.13337 12.5346C4.14198 13.336 4.76199 13.9196 5.6145 13.9196C6.57034 13.9109 7.54341 13.9109 8.50786 13.9109ZM7.0009 19.4683C7.49174 19.4683 7.99119 19.477 8.48203 19.4683C9.29148 19.4509 9.87704 18.8586 9.86843 18.0746C9.85982 17.2994 9.28287 16.7158 8.49064 16.7071C7.50035 16.6983 6.51867 16.6983 5.52839 16.7071C4.72755 16.7158 4.12476 17.3342 4.13337 18.1008C4.14198 18.8673 4.73616 19.4509 5.51978 19.4683C6.01061 19.477 6.51006 19.4683 7.0009 19.4683Z" fill="#9575CD"/>
<path d="M12.8824 26.5066C12.9341 25.6442 12.9858 24.686 13.0633 23.7366C13.0805 23.484 13.1666 23.2226 13.2871 23.0049C15.0266 19.9387 16.7747 16.8726 18.5314 13.8151C18.9878 13.0224 19.7455 12.8221 20.5378 13.2751C21.2783 13.7019 22.0103 14.1287 22.7422 14.5642C23.5431 15.0433 23.7411 15.8099 23.2847 16.6199C21.5453 19.6687 19.8144 22.7087 18.0664 25.7487C17.92 26.01 17.6789 26.2452 17.4377 26.4194C16.7058 26.9421 15.948 27.4125 15.2161 27.9177C14.6994 28.2748 14.1655 28.4142 13.5885 28.1006C13.0719 27.8132 12.8566 27.3428 12.8824 26.5066Z" fill="#9575CD"/>
</svg>
