<svg width="31" height="31" viewBox="0 0 31 31" fill="none" xmlns="http://www.w3.org/2000/svg">
<path d="M14.2541 0.171875C14.8899 0.171875 15.5258 0.171875 16.1616 0.171875C16.2464 0.171875 16.3312 0.214132 16.3735 0.214132C18.7473 0.383162 20.9516 1.05928 22.9863 2.28474C26.8861 4.69341 29.3022 8.15851 30.15 12.68C30.2348 13.2294 30.3196 13.7787 30.362 14.3281C30.362 14.9619 30.362 15.5958 30.362 16.2297C30.3196 16.61 30.2772 16.948 30.2348 17.3283C29.6414 21.385 27.7339 24.7234 24.4699 27.2588C21.1211 29.8365 17.3061 30.8507 13.152 30.3013C9.59126 29.8365 6.53924 28.273 4.08067 25.6108C0.859089 22.1034 -0.454978 17.9622 0.138471 13.2716C0.519974 10.2291 1.74926 7.56691 3.78395 5.32727C6.15774 2.66506 9.0826 1.01702 12.6009 0.425419C13.152 0.298647 13.703 0.25639 14.2541 0.171875ZM24.1308 23.0331C24.1308 22.9486 24.1308 22.8641 24.1308 22.7795C24.1308 20.7512 24.1308 18.7228 24.1308 16.6945C24.1308 16.2719 24.0884 15.8916 24.046 15.469C23.7917 13.3139 22.4776 11.9617 20.4005 11.7081C18.8745 11.5391 17.6028 12.0039 16.7127 13.2716C16.6703 13.3139 16.6279 13.3562 16.5431 13.4407C16.5431 12.8913 16.5431 12.4265 16.5431 11.9194C15.3138 11.9194 14.0845 11.9194 12.8552 11.9194C12.8552 15.6381 12.8552 19.3144 12.8552 22.9908C14.0845 22.9908 15.3138 22.9908 16.5431 22.9908C16.5431 22.8641 16.5431 22.7373 16.5431 22.6105C16.5431 21.0892 16.5431 19.6102 16.5431 18.089C16.5431 17.5396 16.5431 16.9903 16.5855 16.4409C16.6279 15.7648 16.967 15.2577 17.4757 14.8774C18.5354 14.159 19.9342 14.6239 20.2733 15.8493C20.4005 16.2719 20.4429 16.6945 20.4429 17.1171C20.4429 18.9764 20.4429 20.7934 20.4429 22.6528C20.4429 22.7373 20.4429 22.8641 20.4429 22.9908C21.6722 23.0331 22.8591 23.0331 24.1308 23.0331ZM7.13269 11.9617C7.13269 15.6803 7.13269 19.3567 7.13269 23.0331C8.36198 23.0331 9.59126 23.0331 10.8205 23.0331C10.8205 22.9063 10.8205 22.7795 10.8205 22.6528C10.8205 19.2722 10.8205 15.8916 10.8205 12.5533C10.8205 12.4265 10.8205 12.342 10.8205 12.2152C10.8629 12.0039 10.7358 11.9194 10.5238 11.9194C9.54887 11.9194 8.53153 11.9194 7.55658 11.9194C7.42941 11.9617 7.25986 11.9617 7.13269 11.9617ZM6.87836 8.53882C6.87836 9.67977 7.72614 10.4827 8.95543 10.4404C10.1847 10.4404 11.0325 9.63751 11.0325 8.53882C11.0325 7.39788 10.1847 6.59499 8.95543 6.59499C7.76853 6.59499 6.87836 7.39788 6.87836 8.53882Z" fill="#00AEE9"/>
</svg>
