<svg width="41" height="41" viewBox="0 0 41 41" fill="none" xmlns="http://www.w3.org/2000/svg">
<path d="M21.299 41.0001C20.4648 41.0001 19.6307 41.0001 18.7965 41.0001C18.296 40.8865 17.7955 40.8865 17.3506 40.7729C13.3465 40.2051 9.84289 38.5583 6.83983 35.8325C3.33625 32.6524 1.16737 28.7342 0.333186 24.0777C0.221961 23.3394 0.110736 22.5444 -0.000488281 21.8062C-0.000488281 20.9544 -0.000488281 20.1026 -0.000488281 19.2508C-0.000488281 19.1372 0.055124 18.9669 0.055124 18.8533C0.221961 17.8879 0.277573 16.8657 0.500023 15.9572C2.05717 9.59704 5.67197 4.94053 11.4 2.04441C15.1817 0.113663 19.1858 -0.397417 23.3567 0.284024C28.5842 1.19261 32.8108 3.8048 35.9807 8.0638C39.3174 12.55 40.5965 17.6608 39.9292 23.2259C39.373 27.3713 37.7603 31.0056 35.0353 34.0721C31.921 37.5929 28.1393 39.8076 23.5235 40.6594C22.8006 40.7729 22.0776 40.8865 21.299 41.0001ZM20.0756 6.87128C12.7347 6.87128 6.7286 12.9475 6.7286 20.5001C6.7286 27.9959 12.6791 34.1289 20.0756 34.1289C27.4164 34.1289 33.4225 28.0527 33.4225 20.5001C33.4225 13.0042 27.4164 6.87128 20.0756 6.87128Z" fill="#00AEE9"/>
<path d="M16.2382 23.3388C16.2382 21.4649 16.2382 19.5909 16.2382 17.6602C18.7963 17.6602 21.2989 17.6602 23.8014 17.6602C23.9683 19.5341 23.9683 21.4081 23.8014 23.3388C21.2989 23.3388 18.8519 23.3388 16.2382 23.3388Z" fill="#00AEE9"/>
<path d="M16.5719 15.5026C16.9612 13.5151 17.4617 11.5275 18.6852 9.88072C19.575 8.6882 20.4648 8.6882 21.4102 9.88072C22.3556 11.0732 22.8005 12.4929 23.1898 13.9126C23.301 14.4237 23.4122 14.9347 23.5234 15.4458C21.1877 15.5026 18.9076 15.5026 16.5719 15.5026Z" fill="#00AEE9"/>
<path d="M16.6275 25.4966C18.9076 25.4966 21.1877 25.4966 23.5234 25.4966C23.4122 26.0077 23.301 26.5187 23.1898 27.0298C22.8561 28.3359 22.4668 29.5852 21.6882 30.721C21.4102 31.1185 21.0765 31.4592 20.7428 31.7999C20.2423 32.1974 19.7974 32.1974 19.2969 31.7999C18.9076 31.4592 18.5183 31.0049 18.1847 30.4938C17.3505 29.1309 16.9612 27.5977 16.6275 26.0644C16.5719 25.8941 16.5719 25.7805 16.5719 25.6102C16.6275 25.5534 16.6275 25.5534 16.6275 25.4966Z" fill="#00AEE9"/>
<path d="M14.1252 23.3956C13.8471 23.3956 13.5134 23.3956 13.2354 23.3956C12.0119 23.3956 10.7328 23.3956 9.50935 23.3956C9.23129 23.3956 9.12006 23.3388 9.06445 23.0549C8.73078 21.3513 8.67517 19.6477 9.12006 17.9441C9.12006 17.8305 9.2869 17.6602 9.39813 17.6602C10.9553 17.6602 12.5124 17.6602 14.0696 17.6602C14.1252 17.6602 14.1252 17.6602 14.1808 17.7169C14.1252 19.5341 14.1252 21.4649 14.1252 23.3956Z" fill="#00AEE9"/>
<path d="M25.9148 17.6035C26.2485 17.6035 26.5821 17.6035 26.8602 17.6035C28.0837 17.6035 29.3628 17.6035 30.5862 17.6035C30.8643 17.6035 30.9755 17.6603 31.0311 17.9442C31.3648 19.6478 31.4204 21.3514 30.9755 23.055C30.9755 23.1686 30.8087 23.339 30.6975 23.339C29.1403 23.339 27.5832 23.339 26.026 23.339C25.9704 23.339 25.9704 23.339 25.9148 23.2822C25.9148 23.2254 25.9148 23.1686 25.9148 23.1118C25.9148 21.3514 25.9148 19.4775 25.9148 17.6035Z" fill="#00AEE9"/>
<path d="M25.6924 15.5022C25.4699 14.48 25.2475 13.5147 24.9138 12.4925C24.6357 11.5271 24.1909 10.6185 23.8572 9.70996C25.8036 9.99389 29.4184 13.2307 30.1414 15.5022C28.6398 15.5022 27.1939 15.5022 25.6924 15.5022Z" fill="#00AEE9"/>
<path d="M30.1971 25.4966C28.8068 28.3359 26.6935 30.2099 23.7461 31.3456C24.7471 29.4717 25.2476 27.4841 25.6369 25.4966C27.1384 25.4966 28.64 25.4966 30.1971 25.4966Z" fill="#00AEE9"/>
<path d="M16.3494 9.65381C15.3484 11.5278 14.8479 13.4585 14.5142 15.4461C13.0126 15.4461 11.5111 15.4461 10.0096 15.4461C10.232 13.6857 13.9581 10.2217 16.3494 9.65381Z" fill="#00AEE9"/>
<path d="M9.89856 25.4966C11.4557 25.4966 12.9572 25.4966 14.4588 25.4966C14.7924 27.5409 15.293 29.4717 16.3496 31.4024C13.4021 30.2667 11.2889 28.3359 9.89856 25.4966Z" fill="#00AEE9"/>
</svg>
